<?xml version="1.0" encoding="UTF-8"?>
<svg width="98px" height="81px" viewBox="0 0 98 81" version="1.1" xmlns="http://www.w3.org/2000/svg" xmlns:xlink="http://www.w3.org/1999/xlink">
    <title>bundle</title>
    <g id="Page-1" stroke="none" stroke-width="1" fill="none" fill-rule="evenodd">
        <g id="LandingPage-Formst-Light" transform="translate(-1153.000000, -1135.000000)" fill-rule="nonzero">
            <g id="bundle" transform="translate(1154.000000, 1136.000000)">
                <path d="M86,71 L78,71 C76.896,71 76,70.1164444 76,69.0277778 C76,67.9391111 76.896,67.0555556 78,67.0555556 L86,67.0555556 C89.308,67.0555556 92,64.4009444 92,61.1388889 L92,17.75 C92,14.4879444 89.308,11.8333333 86,11.8333333 L40,11.8333333 C39.468,11.8333333 38.96,11.6242778 38.584,11.2574444 L31.172,3.94444444 L10,3.94444444 C6.692,3.94444444 4,6.59905556 4,9.86111111 L4,61.1388889 C4,64.4009444 6.692,67.0555556 10,67.0555556 L18,67.0555556 C19.104,67.0555556 20,67.9391111 20,69.0277778 C20,70.1164444 19.104,71 18,71 L10,71 C4.484,71 0,66.5743333 0,61.1388889 L0,9.86111111 C0,4.42566667 4.484,0 10,0 L32,0 C32.532,0 33.04,0.209055556 33.416,0.575888889 L40.828,7.88888889 L86,7.88888889 C91.516,7.88888889 96,12.3145556 96,17.75 L96,61.1388889 C96,66.5743333 91.516,71 86,71 Z" id="Path" stroke="#000000" fill="#000000"></path>
                <path d="M48.5,67 C47.672,67 47,66.104 47,65 L47,34 C47,32.896 47.672,32 48.5,32 C49.328,32 50,32.896 50,34 L50,65 C50,66.108 49.328,67 48.5,67 Z" id="Path" fill="#000000"></path>
                <path d="M49.0020002,68 C48.4899575,68 47.9779148,67.803958 47.5858822,67.4158748 L37.5850488,57.4137315 C36.8049837,56.6335643 36.8049837,55.3652926 37.5850488,54.5851254 C38.3651138,53.8049582 39.6332194,53.8049582 40.4132844,54.5851254 L49.0020002,63.1709652 L57.5867156,54.5851254 C58.3667806,53.8049582 59.6348862,53.8049582 60.4149512,54.5851254 C61.1950163,55.3652926 61.1950163,56.6335643 60.4149512,57.4137315 L50.4141178,67.4158748 C50.0260855,67.803958 49.5140428,68 49.0020002,68 L49.0020002,68 Z" id="Path" fill="#000000"></path>
                <path d="M62,80 L34,80 C30.692,80 28,77.47625 28,74.375 L28,66.875 C28,65.84 28.896,65 30,65 C31.104,65 32,65.84 32,66.875 L32,74.375 C32,75.41 32.9,76.25 34,76.25 L62,76.25 C63.1,76.25 64,75.41 64,74.375 L64,66.875 C64,65.84 64.896,65 66,65 C67.104,65 68,65.84 68,66.875 L68,74.375 C68,77.47625 65.308,80 62,80 Z" id="Path" fill="#5650D8"></path>
            </g>
        </g>
    </g>
</svg>