<?xml version="1.0" encoding="UTF-8"?>
<svg width="95px" height="95px" viewBox="0 0 95 95" version="1.1" xmlns="http://www.w3.org/2000/svg" xmlns:xlink="http://www.w3.org/1999/xlink">
    <title>high</title>
    <g id="Page-1" stroke="none" stroke-width="1" fill="none" fill-rule="evenodd">
        <g id="LandingPage-Formst-Light" transform="translate(-186.000000, -1136.000000)" fill-rule="nonzero">
            <g id="high" transform="translate(186.000000, 1136.000000)">
                <path d="M47,95 C45.896,95 45,94.104 45,93 L45,77 C45,75.896 45.896,75 47,75 C48.104,75 49,75.896 49,77 L49,93 C49,94.104 48.104,95 47,95 Z" id="Path" fill="#111827"></path>
                <path d="M65,95 L29,95 C27.896,95 27,94.104 27,93 C27,91.896 27.896,91 29,91 L65,91 C66.104,91 67,91.896 67,93 C67,94.104 66.104,95 65,95 Z" id="Path" fill="#111827"></path>
                <path d="M89.0625,79 L5.9375,79 C2.66395833,79 0,76.3500625 0,73.09375 L0,21.90625 C0,18.6499375 2.66395833,16 5.9375,16 L21.7708333,16 C22.8633333,16 23.75,16.882 23.75,17.96875 C23.75,19.0555 22.8633333,19.9375 21.7708333,19.9375 L5.9375,19.9375 C4.84895833,19.9375 3.95833333,20.8195 3.95833333,21.90625 L3.95833333,73.09375 C3.95833333,74.1805 4.84895833,75.0625 5.9375,75.0625 L89.0625,75.0625 C90.1510417,75.0625 91.0416667,74.1805 91.0416667,73.09375 L91.0416667,21.90625 C91.0416667,20.8195 90.1510417,19.9375 89.0625,19.9375 L85.1041667,19.9375 C84.0116667,19.9375 83.125,19.0555 83.125,17.96875 C83.125,16.882 84.0116667,16 85.1041667,16 L89.0625,16 C92.3360417,16 95,18.6499375 95,21.90625 L95,73.09375 C95,76.3500625 92.3360417,79 89.0625,79 Z" id="Path" fill="#111827"></path>
                <path d="M50.2704279,47 C49.7622466,47 49.2540652,46.805457 48.8649888,46.4203413 L34.5842981,32.1392972 C33.8339366,31.3928873 33.8021752,30.1898969 34.5128351,29.4077547 L46.2129173,16.4210171 C54.5185066,6.82488596 67.6954909,0.210424058 78.9787055,0 C79.6417233,0.0079405305 80.0427102,0.202483528 80.4198761,0.579658726 C80.8010121,0.96080419 81.011431,1.48090894 80.9995205,2.02086501 C80.7851314,13.3043588 74.1748034,26.4856395 64.5471484,34.8192262 L51.5924935,46.491806 C51.2192978,46.8332489 50.7428778,47 50.2704279,47 L50.2704279,47 Z M38.7251823,30.6663288 L50.3418909,42.2833249 L61.9268382,31.8454976 C70.1689049,24.7109309 75.9931399,13.8165231 76.9102485,4.09334347 C67.1912797,5.01444501 56.3011116,10.8348539 49.1905425,19.0493327 L38.7251823,30.6663288 Z" id="Shape" fill="#111827"></path>
                <path d="M55.806558,56 C55.6273163,56 55.4440914,55.9758648 55.2648497,55.923572 C54.5677985,55.7264682 54.0340565,55.1673371 53.8667642,54.45535 L51.0546607,42.5888978 C50.7997391,41.5068383 51.4609419,40.4247788 52.528426,40.1633146 C53.6038764,39.8978278 54.6753436,40.5736122 54.9302651,41.6516492 L56.7983623,49.5277554 C60.2557361,44.0651649 60.9488041,37.069992 61.0205008,32.9750603 C61.0404165,31.8688656 62.0083218,31.0563154 63.0479239,31 C64.14329,31.0201126 65.0195829,31.9412711 64.9996671,33.0474658 C64.8323749,42.5647627 62.0680691,50.5052293 57.2126098,55.4086887 C56.8342106,55.7948512 56.3243675,56 55.806558,56 L55.806558,56 Z" id="Path" fill="#111827"></path>
                <path d="M38.8769617,30 C38.7240999,30 38.5672155,29.9840683 38.4103311,29.944239 L26.5434337,27.1283073 C25.8314199,26.9610242 25.2722677,26.4312945 25.0751566,25.7342817 C24.8780454,25.0412518 25.0751566,24.2964438 25.5900592,23.7866287 C30.4937026,18.9314367 38.4304445,16.1672831 47.9521212,16 C49.0020399,16.055761 49.9795505,16.85633 49.9996638,17.9556188 C50.0197772,19.0549075 49.1347883,19.9630156 48.0245294,19.9829303 C43.9294441,20.054623 36.9380313,20.74367 31.4752358,24.2048364 L39.3516376,26.0728307 C40.4337377,26.3277383 41.1015021,27.4031294 40.8400281,28.4745377 C40.6147582,29.3866287 39.7901094,30 38.8769617,30 Z" id="Path" fill="#111827"></path>
                <path d="M23.9969287,59 C23.4739587,59 22.9629652,58.7964072 22.5837122,58.4171657 C22.0647344,57.8982036 21.8731118,57.1357285 22.084695,56.4331337 C22.7433976,54.2295409 26.164659,43.1077844 28.8473751,40.4251497 C32.0849982,37.1916168 37.3386505,37.1916168 40.5762736,40.4251497 C43.8099046,43.6586826 43.8059124,48.9201597 40.5762736,52.1536926 C37.8935575,54.8323353 26.7714639,58.261477 24.5678043,58.9201597 C24.3841659,58.9720559 24.1885512,59 23.9969287,59 Z M34.7158165,41.99002 C33.6179788,41.99002 32.5121569,42.4051896 31.6738081,43.243513 C30.5440333,44.3772455 28.5878862,49.3792415 27.066882,53.9341317 C31.6259025,52.4091816 36.6280501,50.4610778 37.7578249,49.3273453 C39.4305303,47.6506986 39.4305303,44.9201597 37.7578249,43.247505 C36.915484,42.4091816 35.8176463,41.99002 34.7158165,41.99002 L34.7158165,41.99002 Z" id="Shape" fill="#5650D8"></path>
            </g>
        </g>
    </g>
</svg>