<svg id="high" xmlns="http://www.w3.org/2000/svg" width="95" height="95" viewBox="0 0 95 95">
  <path id="Path" d="M2,20a2,2,0,0,1-2-2V2A2,2,0,0,1,4,2V18A2,2,0,0,1,2,20Z" transform="translate(45 75)" fill="#b1ade3"/>
  <path id="Path-2" data-name="Path" d="M38,4H2A2,2,0,0,1,2,0H38a2,2,0,0,1,0,4Z" transform="translate(27 91)" fill="#b1ade3"/>
  <path id="Path-3" data-name="Path" d="M89.063,63H5.938A5.929,5.929,0,0,1,0,57.094V5.906A5.929,5.929,0,0,1,5.938,0H21.771a1.969,1.969,0,1,1,0,3.938H5.938A1.977,1.977,0,0,0,3.958,5.906V57.094a1.977,1.977,0,0,0,1.979,1.969H89.063a1.977,1.977,0,0,0,1.979-1.969V5.906a1.977,1.977,0,0,0-1.979-1.969H85.1A1.969,1.969,0,1,1,85.1,0h3.958A5.929,5.929,0,0,1,95,5.906V57.094A5.929,5.929,0,0,1,89.063,63Z" transform="translate(0 16)" fill="#b1ade3"/>
  <path id="Shape" d="M14.865,46.42.584,32.139a1.976,1.976,0,0,1-.071-2.731l11.7-12.986C20.518,6.825,33.7.211,44.978,0A1.87,1.87,0,0,1,46.42.58,1.979,1.979,0,0,1,47,2.02c-.215,11.284-6.825,24.465-16.453,32.8L17.592,46.492A1.953,1.953,0,0,1,16.27,47,1.993,1.993,0,0,1,14.865,46.42Z" transform="translate(34)" fill="#b1ade3"/>
  <path id="Path-4" data-name="Path" d="M4.807,25a1.936,1.936,0,0,1-.542-.076,1.993,1.993,0,0,1-1.4-1.468L.055,11.589A2.017,2.017,0,0,1,1.528,9.163a1.986,1.986,0,0,1,2.4,1.488L5.8,18.528C9.256,13.065,9.949,6.07,10.021,1.975A2.1,2.1,0,0,1,12.048,0,2.005,2.005,0,0,1,14,2.047c-.167,9.517-2.932,17.458-7.787,22.361A1.968,1.968,0,0,1,4.807,25Z" transform="translate(51 31)" fill="#b1ade3"/>
  <path id="Path-5" data-name="Path" d="M13.877,14a1.891,1.891,0,0,1-.467-.056L1.543,11.128A1.981,1.981,0,0,1,.59,7.787C5.494,2.931,13.43.167,22.952,0A2.1,2.1,0,0,1,25,1.956a2,2,0,0,1-1.975,2.027c-4.1.072-11.086.761-16.549,4.222l7.876,1.868a1.987,1.987,0,0,1,1.488,2.4A2.018,2.018,0,0,1,13.877,14Z" transform="translate(25 16)" fill="#b1ade3"/>
  <path id="Shape-2" data-name="Shape" d="M.584,20.417a1.994,1.994,0,0,1-.5-1.984c.659-2.2,4.08-13.325,6.763-16.007A8.293,8.293,0,0,1,18.576,14.153c-2.682,2.679-13.8,6.108-16.008,6.767A2.14,2.14,0,0,1,2,21,2,2,0,0,1,.584,20.417Z" transform="translate(22 38)" fill="#5650d8"/>
</svg>
