<svg id="middle" xmlns="http://www.w3.org/2000/svg" width="95" height="95" viewBox="0 0 95 95">
  <path id="Rectangle" d="M0,0,6.1.012l.023,11.9L.023,11.9Z" transform="translate(60.677 49.983) rotate(-65.19)" fill="#b1ade3"/>
  <path id="Shape" d="M0,13.5A13.5,13.5,0,1,1,13.5,27,13.515,13.515,0,0,1,0,13.5Z" transform="translate(13)" fill="#b1ade3"/>
  <path id="Shape-2" data-name="Shape" d="M0,13.5A13.5,13.5,0,1,1,13.5,27,13.514,13.514,0,0,1,0,13.5Z" transform="translate(65 2)" fill="#b1ade3"/>
  <path id="Shape-3" data-name="Shape" d="M0,13.5A13.5,13.5,0,1,1,13.5,27,13.514,13.514,0,0,1,0,13.5Z" transform="translate(0 40.597)" fill="#b1ade3"/>
  <path id="Shape-4" data-name="Shape" d="M0,13.5A13.5,13.5,0,1,1,13.5,27,13.514,13.514,0,0,1,0,13.5Z" transform="translate(37.091 68)" fill="#b1ade3"/>
  <path id="Shape-5" data-name="Shape" d="M0,13.5A13.5,13.5,0,1,1,13.5,27,13.515,13.515,0,0,1,0,13.5Z" transform="translate(68 43.642)" fill="#b1ade3"/>
  <path id="Rectangle-2" data-name="Rectangle" d="M0,0,14.542.026l.011,6.1L.011,6.1Z" transform="matrix(0.926, -0.379, 0.379, 0.926, 21.396, 48.556)" fill="#b1ade3"/>
  <rect id="Rectangle-3" data-name="Rectangle" width="6.124" height="18.482" transform="translate(45.699 54.083) rotate(-1.576)" fill="#b1ade3"/>
  <path id="Rectangle-4" data-name="Rectangle" d="M0,0,12.752.031l.015,6.1L.015,6.1Z" transform="matrix(0.807, -0.591, 0.591, 0.807, 56.909, 27.222)" fill="#b1ade3"/>
  <path id="Rectangle-5" data-name="Rectangle" d="M0,0,6.109.015,6.138,11.5.029,11.488Z" transform="matrix(0.77, -0.638, 0.638, 0.77, 30.912, 22.059)" fill="#b1ade3"/>
  <path id="Shape-6" data-name="Shape" d="M0,17A16.775,16.775,0,0,1,16.5,0,16.775,16.775,0,0,1,33,17,16.775,16.775,0,0,1,16.5,34,16.775,16.775,0,0,1,0,17Z" transform="translate(33.067 23.383)" fill="#b1ade3"/>
  <circle id="Oval" cx="6.5" cy="6.5" r="6.5" transform="translate(43.05 34.42)" fill="#5650d8"/>
</svg>
