<svg xmlns="http://www.w3.org/2000/svg" width="96" height="95" viewBox="0 0 96 95">
  <g id="Group_74" data-name="Group 74" transform="translate(-50.5 11)">
    <rect id="Rectangle_8" data-name="Rectangle 8" width="95" height="95" transform="translate(51 -11)" fill="none"/>
    <g id="bundle" transform="translate(51 -3)">
      <path id="Path" d="M85.1,70.167H77.188a1.949,1.949,0,1,1,0-3.9H85.1a5.9,5.9,0,0,0,5.938-5.847V17.542A5.9,5.9,0,0,0,85.1,11.694H39.583a2.009,2.009,0,0,1-1.4-.569L30.847,3.9H9.9A5.9,5.9,0,0,0,3.958,9.745V60.421A5.9,5.9,0,0,0,9.9,66.269h7.917a1.949,1.949,0,1,1,0,3.9H9.9A9.833,9.833,0,0,1,0,60.421V9.745A9.833,9.833,0,0,1,9.9,0H31.667a2.009,2.009,0,0,1,1.4.569L40.4,7.8H85.1A9.833,9.833,0,0,1,95,17.542v42.88A9.833,9.833,0,0,1,85.1,70.167Z" fill="#b1ade3" stroke="#b1ade3" stroke-miterlimit="10" stroke-width="1"/>
      <path id="Path-2" data-name="Path" d="M1.5,35C.672,35,0,34.1,0,33V2C0,.9.672,0,1.5,0S3,.9,3,2V33C3,34.108,2.328,35,1.5,35Z" transform="translate(46.495 31.407)" fill="#b1ade3" stroke="rgba(0,0,0,0)" stroke-width="1"/>
      <path id="Path-3" data-name="Path" d="M12,14a2.009,2.009,0,0,1-1.416-.584l-10-10A2,2,0,0,1,3.413.585L12,9.171,20.587.585a2,2,0,0,1,2.828,2.829l-10,10A1.993,1.993,0,0,1,12,14Z" transform="translate(36.486 53.318)" fill="#b1ade3" stroke="rgba(0,0,0,0)" stroke-width="1"/>
      <path id="Path-4" data-name="Path" d="M34,15H6A5.829,5.829,0,0,1,0,9.375v-7.5A1.941,1.941,0,0,1,2,0,1.941,1.941,0,0,1,4,1.875v7.5A1.944,1.944,0,0,0,6,11.25H34a1.944,1.944,0,0,0,2-1.875v-7.5a2,2,0,0,1,4,0v7.5A5.829,5.829,0,0,1,34,15Z" transform="translate(27.5 64.167)" fill="#5650d8" stroke="rgba(0,0,0,0)" stroke-width="1"/>
    </g>
  </g>
</svg>
