<svg xmlns="http://www.w3.org/2000/svg" width="789.811" height="789.811" viewBox="0 0 789.811 789.811">
  <g id="Group_44" data-name="Group 44" transform="translate(-14536.268 -1244.298)">
    <g id="Group_36" data-name="Group 36" transform="translate(14536.268 1244.298)">
      <path id="Path_18" data-name="Path 18" d="M90.774,0H468.047a90.774,90.774,0,0,1,90.774,90.774V468.047a90.774,90.774,0,0,1-90.774,90.774H90.774A90.774,90.774,0,0,1,0,468.047V90.774A90.774,90.774,0,0,1,90.774,0Z" transform="translate(408.696 0) rotate(47)" fill="#fbfbfb"/>
      <g id="Group_34" data-name="Group 34" transform="translate(135.414 141.741)">
        <g id="Group_31" data-name="Group 31" transform="translate(94.257 0) rotate(13)">
          <path id="Path_21" data-name="Path 21" d="M57.374,46.411v65.78h104.7v46.046H57.374V266.042H0V0H174.681V46.411Z" transform="matrix(0.839, 0.545, -0.545, 0.839, 144.897, 100.753)" fill="#534ce9"/>
          <path id="Path_20" data-name="Path 20" d="M57.374,46.411v65.78h104.7v46.046H57.374V266.042H0V0H174.681V46.411Z" transform="matrix(-0.839, -0.545, 0.545, -0.839, 291.001, 318.259)" fill="#534ce9"/>
        </g>
      </g>
    </g>
  </g>
</svg>
