<?xml version="1.0" encoding="UTF-8"?>
<svg width="93px" height="94px" viewBox="0 0 93 94" version="1.1" xmlns="http://www.w3.org/2000/svg" xmlns:xlink="http://www.w3.org/1999/xlink">
    <title>middle</title>
    <g id="Page-1" stroke="none" stroke-width="1" fill="none" fill-rule="evenodd">
        <g id="LandingPage-Formst-Light" transform="translate(-511.000000, -1137.000000)">
            <g id="middle" transform="translate(511.000000, 1137.000000)">
                <polygon id="Rectangle" fill="#111827" fill-rule="nonzero" transform="translate(65.882009, 49.179980) rotate(-65.190444) translate(-65.882009, -49.179980) " points="62.8230711 43.2221818 68.9180733 43.2339314 68.9409459 55.1377774 62.8459437 55.1260278"></polygon>
                <path d="M26.5000977,0 C19.0557553,0 13,6.05555998 13,13.4999023 C13,20.9442447 19.05556,27 26.5000977,27 C33.9434634,27 40,20.94444 40,13.4999023 C40,6.05555998 33.94444,0 26.5000977,0 Z M26.5000977,20.5199922 C22.6292818,20.5199922 19.4800078,17.3707182 19.4800078,13.4999023 C19.4800078,9.62928184 22.6292818,6.47981249 26.5000977,6.47981249 C30.3707182,6.47981249 33.5201875,9.62908652 33.5201875,13.4999023 C33.5199922,17.3707182 30.3707182,20.5199922 26.5000977,20.5199922 Z" id="Shape" fill="#111827" fill-rule="nonzero"></path>
                <path d="M76.4999023,2 C69.05556,2 63,8.05555998 63,15.5000977 C63,22.9446354 69.05556,29 76.4999023,29 C83.9442447,29 90,22.9432681 90,15.5000977 C90,8.05653662 83.94444,2 76.4999023,2 Z M76.4999023,22.5199922 C72.6292818,22.5199922 69.4798125,19.3707182 69.4798125,15.4999023 C69.4798125,11.6290865 72.6290865,8.47981249 76.4999023,8.47981249 C80.3707182,8.47981249 83.5199922,11.6290865 83.5199922,15.4999023 C83.5199922,19.3707182 80.3707182,22.5199922 76.4999023,22.5199922 Z" id="Shape" fill="#111827" fill-rule="nonzero"></path>
                <path d="M13.4999023,40 C6.05555998,40 0,46.05556 0,53.5000977 C0,60.9446354 6.05555998,67 13.4999023,67 C20.9432681,67 27,60.94444 27,53.5000977 C27,46.0557553 20.9442447,40 13.4999023,40 Z M13.4999023,60.5199922 C9.62928184,60.5199922 6.47981249,57.3707182 6.47981249,53.4999023 C6.47981249,49.6292818 9.62908652,46.4798125 13.4999023,46.4798125 C17.3707182,46.4798125 20.5199922,49.6290865 20.5199922,53.4999023 C20.5197969,57.3707182 17.3705228,60.5199922 13.4999023,60.5199922 Z" id="Shape" fill="#111827" fill-rule="nonzero"></path>
                <path d="M49.4999023,67 C42.05556,67 36,73.05556 36,80.4999023 C36,87.9442447 42.05556,94 49.4999023,94 C56.9442447,94 63,87.94444 63,80.4999023 C63,73.05556 56.94444,67 49.4999023,67 Z M49.4999023,87.5199922 C45.6292818,87.5199922 42.4800078,84.3707182 42.4800078,80.4999023 C42.4800078,76.6292818 45.6292818,73.4798125 49.4999023,73.4798125 C53.3707182,73.4798125 56.5199922,76.6290865 56.5199922,80.4999023 C56.5199922,84.3707182 53.3707182,87.5199922 49.4999023,87.5199922 Z" id="Shape" fill="#111827" fill-rule="nonzero"></path>
                <path d="M79.5000977,43 C72.0557553,43 66,49.05556 66,56.5000977 C66,63.9446354 72.05556,70 79.5000977,70 C86.9434634,70 93,63.94444 93,56.5000977 C93,49.0557553 86.9446354,43 79.5000977,43 Z M79.5000977,63.5199922 C75.6292818,63.5199922 72.4800078,60.3707182 72.4800078,56.4999023 C72.4800078,52.6290865 75.6292818,49.4798125 79.5000977,49.4798125 C83.3707182,49.4798125 86.5201875,52.6290865 86.5201875,56.4999023 C86.5201875,60.3707182 83.3709135,63.5199922 79.5000977,63.5199922 Z" id="Shape" fill="#111827" fill-rule="nonzero"></path>
                <polygon id="Rectangle" fill="#111827" fill-rule="nonzero" transform="translate(28.749558, 48.120807) rotate(-22.246131) translate(-28.749558, -48.120807) " points="21.4733673 45.0601804 36.0149357 45.0858817 36.0257481 51.1814339 21.4841797 51.1557325"></polygon>
                <polygon id="Rectangle" fill="#111827" fill-rule="nonzero" transform="translate(47.979365, 62.530769) rotate(-1.575867) translate(-47.979365, -62.530769) " points="44.9174602 53.2895954 51.0386963 53.2904435 51.0412701 71.7719436 44.9200339 71.7710954"></polygon>
                <polygon id="Rectangle" fill="#111827" fill-rule="nonzero" transform="translate(62.466503, 25.683164) rotate(-36.235048) translate(-62.466503, -25.683164) " points="56.0830038 22.6170589 68.8352919 22.6477583 68.8500029 28.74927 56.0977147 28.7185706"></polygon>
                <polygon id="Rectangle" fill="#111827" fill-rule="nonzero" transform="translate(36.197806, 24.312309) rotate(-39.611906) translate(-36.197806, -24.312309) " points="33.1288574 18.5608029 39.2382286 18.5759591 39.2667546 30.0638149 33.1573835 30.0486588"></polygon>
                <path d="M48.5004549,23 C39.4020766,23 32,30.6261717 32,40 C32,49.3738283 39.4020766,57 48.5004549,57 C57.5988332,57 65,49.3738283 65,40 C65,30.6261717 57.5988332,23 48.5004549,23 Z M48.5004549,50.7804649 C42.7313552,50.7804649 38.036774,45.9446944 38.036774,40 C38.036774,34.056243 42.7304454,29.2195351 48.5004549,29.2195351 C54.2695546,29.2195351 58.963226,34.0553056 58.963226,40 C58.963226,45.943757 54.2695546,50.7804649 48.5004549,50.7804649 Z" id="Shape" fill="#111827" fill-rule="nonzero"></path>
                <circle id="Oval" fill="#5650D8" cx="48.5" cy="40.5" r="6.5"></circle>
            </g>
        </g>
    </g>
</svg>