<?xml version="1.0" encoding="UTF-8"?>
<svg width="97px" height="97px" viewBox="0 0 97 97" version="1.1" xmlns="http://www.w3.org/2000/svg" xmlns:xlink="http://www.w3.org/1999/xlink">
    <title>outofbox</title>
    <g id="Page-1" stroke="none" stroke-width="1" fill="none" fill-rule="evenodd">
        <g id="LandingPage-Formst-Light" transform="translate(-832.000000, -1134.000000)" fill-rule="nonzero">
            <g id="outofbox" transform="translate(832.000000, 1134.000000)">
                <path d="M47.5005622,20 C31.234426,20 18,33.1770982 18,49.37527 C18,60.2391168 24.0276253,70.153478 33.5159393,75.1664558 L33.5159393,84.950748 C33.5159393,86.6349279 34.8868337,88 36.5781971,88 L58.4229274,88 C60.1142907,88 61.4851852,86.6358609 61.4851852,84.950748 L61.4851852,75.2416607 C70.9723747,70.0984272 77,60.1504757 77,49.37527 C77,33.1782179 63.7666984,20 47.5005622,20 Z M57.1418017,70.5935108 C56.0567054,71.0915802 55.3604822,72.173001 55.3604822,73.3634036 L55.3604822,81.9014959 L39.6406423,81.9014959 L39.6406423,73.2616997 C39.6406423,72.0573011 38.9271774,70.9644969 37.8216536,70.4755716 C29.5012706,66.7929559 24.1248904,58.5099632 24.1248904,49.37527 C24.1248904,36.5406061 34.611343,26.0986907 47.5007496,26.0986907 C60.3901563,26.0986907 70.8756718,36.5406061 70.8756718,49.37527 C70.8756718,58.4377441 65.4846738,66.7666435 57.1418017,70.5935108 Z" id="Shape" fill="#000000"></path>
                <path d="M57.9231252,91 L40.0768748,91 C38.3774381,91 37,92.3430233 37,94 C37,95.6569767 38.3774381,97 40.0768748,97 L57.9231252,97 C59.6225619,97 61,95.6569767 61,94 C61,92.3430233 59.6227502,91 57.9231252,91 Z" id="Path" fill="#5650D8"></path>
                <rect id="Rectangle" fill="#000000" x="46" y="0" width="6" height="13"></rect>
                <rect id="Rectangle" fill="#000000" x="0" y="46" width="13" height="6"></rect>
                <rect id="Rectangle" fill="#000000" x="84" y="46" width="13" height="6"></rect>
                <polygon id="Rectangle" fill="#000000" transform="translate(18.923687, 18.678001) rotate(-45.324114) translate(-18.923687, -18.678001) " points="15.8092457 12.2012907 22.012806 12.2134302 22.0381292 25.1547122 15.834569 25.1425727"></polygon>
                <polygon id="Rectangle" fill="#000000" transform="translate(78.076470, 18.680675) rotate(-44.675886) translate(-78.076470, -18.680675) " points="71.5997592 15.5662336 84.5410413 15.5915568 84.5531808 21.795117 71.6118988 21.7697938"></polygon>
            </g>
        </g>
    </g>
</svg>